# xmcd
#
# Track frame offsets:
# 150
# 136720
# 263179
#
# Disc length: 4315 seconds
#
# Revision: 0
# Processed by: cddbd v1.5.2PL0 Copyright (c) Steve Scherf et al.
# Submitted via: Audion 3.0.2 (http://www.panic.com/audion/)
#
DISCID=2010d903
DTITLE=John Stanford - Dead Watch
DYEAR=1900
DGENRE=
TTITLE0=chapter 1
TTITLE1=chapter 2
TTITLE2=chapter 3
EXTD=
EXTT0=
EXTT1=
EXTT2=
PLAYORDER=
